<?xml version="1.0" encoding="utf-8"?>
<!-- Generator: Adobe Illustrator 22.1.0, SVG Export Plug-In . SVG Version: 6.00 Build 0)  -->
<svg version="1.1" id="Слой_1" xmlns="http://www.w3.org/2000/svg" xmlns:xlink="http://www.w3.org/1999/xlink" x="0px" y="0px"
	 viewBox="0 0 500 500" style="enable-background:new 0 0 500 500;" xml:space="preserve">
<style type="text/css">
	.st0{fill:none;}
</style>
<path class="st0" d="M202.6,200.6c8.6-46.5,49.4-81.8,98.3-81.8c55.1,0,100,44.9,100,100s-44.9,100-100,100c-0.8,0-1.7,0-2.5-0.1
	c-6.6,22.4-19.2,42.9-36.8,59.7h126.2c40.1,0,72.7-32.6,72.7-72.7l0,0V131.9c0-40.1-32.6-72.7-72.7-72.7H214
	c-40.1,0-72.7,32.6-72.7,72.7v89.7c4.6,4.7,8.6,10.1,12.1,16.1C164.5,219,182.3,205.8,202.6,200.6z M387.3,97
	c4.7-4.7,11.2-7.4,17.8-7.4c6.7,0,13.2,2.7,17.9,7.4c4.7,4.7,7.4,11.2,7.4,17.9c0,6.6-2.7,13.2-7.4,17.9c-4.7,4.7-11.2,7.4-17.9,7.4
	c-6.6,0-13.2-2.7-17.8-7.4c-4.7-4.7-7.4-11.2-7.4-17.9S382.6,101.7,387.3,97z"/>
<path class="st0" d="M366.5,218.8c0-36.2-29.4-65.6-65.6-65.6c-29.6,0-54.7,19.7-62.8,46.7c34.7,7.6,60.9,39.4,64.6,81.1
	c0.1,0.5,0.2,1.7,0.3,3.3C338.2,283.2,366.5,254.3,366.5,218.8z"/>
<g>
	<path d="M405.1,89.5c-6.6,0-13.2,2.7-17.8,7.4c-4.7,4.7-7.4,11.2-7.4,17.9c0,6.6,2.7,13.2,7.4,17.9c4.7,4.7,11.2,7.4,17.8,7.4
		c6.7,0,13.2-2.7,17.9-7.4c4.7-4.7,7.4-11.2,7.4-17.9c0-6.7-2.7-13.2-7.4-17.9S411.8,89.5,405.1,89.5z"/>
	<path d="M387.9,24.7H214c-59.1,0-107.1,48.1-107.1,107.1v68.9c-6.5-1.8-13.4-2.8-20.5-2.8C44,197.8,10,232.5,5.5,280.4
		c-0.3,2.1-1.8,13.2,2.5,31.4c6.1,26.2,20.4,50.1,41.1,69l103.7,94.5l70.2-62.4h164.9c59.1,0,107.1-48.1,107.1-107.1V131.9
		C495,72.8,446.9,24.7,387.9,24.7z M219.4,333.7l-0.1,44.7v2.4l-27.9-0.1v-5.9h0l0.2-41.1l-44.9-0.2h-2.4v-6.6l0.2-21.2l47.1,0.1
		l0.1-47.1h17.5l10.4,0v18.2l-0.1,29l32.4,0h14.8l-0.2,27.9L219.4,333.7z M202.6,200.9c0-0.1,0-0.2,0-0.3l0,0.1
		C202.6,200.8,202.6,200.8,202.6,200.9z M302.7,281c-3.7-41.7-29.8-73.4-64.5-81.1c0,0,0,0,0,0c0,0-0.1,0-0.1,0
		c8.1-27,33.2-46.7,62.8-46.7c36.2,0,65.6,29.4,65.6,65.6c0,35.4-28.3,64.4-63.4,65.5c-0.1,0-0.2,0-0.2,0c0,0,0.1,0,0.1,0
		C302.9,282.6,302.7,281.5,302.7,281z M301,284.4C301,284.4,301,284.4,301,284.4C301,284.4,301,284.4,301,284.4
		C301,284.4,301,284.4,301,284.4z M460.6,305.7c0,40.1-32.6,72.7-72.7,72.7H261.6c0,0,0,0,0,0c0,0,0,0,0,0h0
		c17.3-16.8,29.9-37.3,36.5-59.6l0.3-0.1c55.1,0,102.5-44.8,102.5-99.9c0-55.1-44.9-100-100-100c-48.9,0-89.7,35.3-98.3,81.8v0
		c-20.3,5.2-38.1,18.4-49.2,37c-3.5-5.9-7.7-11.3-12.3-16.1l0.2-89.7c0-40.1,32.6-72.7,72.7-72.7h173.9c40.1,0,72.7,32.6,72.7,72.7
		V305.7z"/>
</g>
</svg>
